<svg xmlns="http://www.w3.org/2000/svg" viewBox="0 0 360 240"><rect width="360" height="240" rx="28" fill="#0D1117"/><rect x="71" y="59" width="218" height="132" rx="18" fill="#151D2A" stroke="#334057" stroke-width="5"/><path d="M92 86h176" stroke="#202938" stroke-width="13" stroke-linecap="round"/><circle cx="105" cy="86" r="7" fill="#7E8AA2"/><path d="M102 160h62l-7-19 8-20-12-11 6-31-21 13-21-13 6 31-12 11 7 20-4 19Z" fill="#202938" stroke="#7E8AA2" stroke-width="4" stroke-linejoin="round"/><path d="M204 110a31 31 0 0 1 0 48M225 94a53 53 0 0 1 0 80" fill="none" stroke="#7E8AA2" stroke-width="7" stroke-linecap="round"/><circle cx="184" cy="134" r="12" fill="#FF3B47" opacity=".35"/><path d="M278 55 80 200" stroke="#FF3B47" stroke-width="8" stroke-linecap="round"/></svg>
